<?xml version="1.0" encoding="UTF-8"?>
<svg id="Layer_2" data-name="Layer 2" xmlns="http://www.w3.org/2000/svg" xmlns:xlink="http://www.w3.org/1999/xlink" viewBox="0 0 504.21 579.01">
  <defs>
    <style>
      .cls-1 {
        fill: url(#linear-gradient-2);
      }

      .cls-2 {
        fill: url(#New_Gradient_Swatch_1-9);
      }

      .cls-3 {
        fill: url(#New_Gradient_Swatch_1-3);
      }

      .cls-4 {
        fill: url(#New_Gradient_Swatch_1-5);
      }

      .cls-5 {
        fill: url(#New_Gradient_Swatch_1-7);
      }

      .cls-6 {
        fill: url(#New_Gradient_Swatch_1-6);
      }

      .cls-7 {
        fill: url(#linear-gradient-5);
      }

      .cls-8 {
        fill: none;
        stroke: url(#New_Gradient_Swatch_1);
        stroke-miterlimit: 10;
        stroke-width: 17.79px;
      }

      .cls-9 {
        fill: url(#New_Gradient_Swatch_1-2);
      }

      .cls-10 {
        fill: url(#linear-gradient-3);
      }

      .cls-11 {
        fill: url(#New_Gradient_Swatch_1-8);
      }

      .cls-12 {
        fill: url(#linear-gradient);
      }

      .cls-13 {
        fill: url(#New_Gradient_Swatch_1-4);
      }

      .cls-14 {
        fill: url(#linear-gradient-4);
      }
    </style>
    <linearGradient id="New_Gradient_Swatch_1" data-name="New Gradient Swatch 1" x1="0" y1="382.55" x2="497.54" y2="382.55" gradientUnits="userSpaceOnUse">
      <stop offset="0" stop-color="#36a8e0"/>
      <stop offset="1" stop-color="#7f00ff"/>
    </linearGradient>
    <linearGradient id="linear-gradient" x1="129.96" y1="560.62" x2="129.96" y2="125.76" gradientUnits="userSpaceOnUse">
      <stop offset="0" stop-color="#7f00ff"/>
      <stop offset="1" stop-color="#d407e4"/>
    </linearGradient>
    <linearGradient id="linear-gradient-2" x1="484.39" y1="589.8" x2="488.66" y2="56.57" xlink:href="#linear-gradient"/>
    <linearGradient id="linear-gradient-3" x1="486.01" y1="589.81" x2="490.28" y2="56.58" xlink:href="#linear-gradient"/>
    <linearGradient id="linear-gradient-4" x1="293.37" y1="587.63" x2="297.65" y2="53.27" xlink:href="#linear-gradient"/>
    <linearGradient id="linear-gradient-5" x1="376.3" y1="535.58" x2="379.85" y2="92.17" xlink:href="#linear-gradient"/>
    <linearGradient id="New_Gradient_Swatch_1-2" data-name="New Gradient Swatch 1" x1="356.67" y1="95.21" x2="356.85" y2="73.64" xlink:href="#New_Gradient_Swatch_1"/>
    <linearGradient id="New_Gradient_Swatch_1-3" data-name="New Gradient Swatch 1" x1="347.61" y1="95.13" x2="347.79" y2="73.57" xlink:href="#New_Gradient_Swatch_1"/>
    <linearGradient id="New_Gradient_Swatch_1-4" data-name="New Gradient Swatch 1" x1="341.8" y1="95.08" x2="341.98" y2="73.52" xlink:href="#New_Gradient_Swatch_1"/>
    <linearGradient id="New_Gradient_Swatch_1-5" data-name="New Gradient Swatch 1" x1="323.35" y1="34.69" x2="376.89" y2="34.69" xlink:href="#New_Gradient_Swatch_1"/>
    <linearGradient id="New_Gradient_Swatch_1-6" data-name="New Gradient Swatch 1" x1="276.98" y1="376.84" x2="278.88" y2="500.64" xlink:href="#New_Gradient_Swatch_1"/>
    <linearGradient id="New_Gradient_Swatch_1-7" data-name="New Gradient Swatch 1" x1="394.04" y1="375.04" x2="395.94" y2="498.84" xlink:href="#New_Gradient_Swatch_1"/>
    <linearGradient id="New_Gradient_Swatch_1-8" data-name="New Gradient Swatch 1" x1="262.92" y1="377.05" x2="264.82" y2="500.85" xlink:href="#New_Gradient_Swatch_1"/>
    <linearGradient id="New_Gradient_Swatch_1-9" data-name="New Gradient Swatch 1" x1="273.55" y1="376.89" x2="275.46" y2="500.69" xlink:href="#New_Gradient_Swatch_1"/>
  </defs>
  <g id="Layer_1-2" data-name="Layer 1">
    <g>
      <path class="cls-8" d="m423.2,293.76c3.42-2.68,29.32-23.56,26.27-49.89-2.93-25.26-30.98-42.4-52.29-47.3-56.71-13.04-79.14,57.28-177.74,91.72-71.44,24.96-93.97,0-143.76,34.46-8.45,5.85-67.75,48.11-66.77,107.17.42,25.43,12.06,56.51,27.52,79.16.75,1.09,3.92,5.49,8.41,11.19,9.76,12.39,26.91,32.67,56.22,44,7.95,3.08,16.15,4.85,25.37,5.85h318.76c9.91-.06,31.45-1.47,39.22-15.2,2.95-5.21,2.74-10.11,2.72-19.49-.02-11.01.22-27.07,1.54-47.29"/>
      <path class="cls-12" d="m55.43,219.65c0-15.45,5.45-28.72,16.36-39.45,10.91-10.91,24.18-16.36,39.63-16.36,6.36,0,12.54,1.09,18.54,3.09-11.27,4.18-20.36,10.91-27.09,20.54-6.73,9.64-10.18,20.36-10.18,32.18v103.08c11.45-6.73,23.82-10,37.27-10,20.54,0,38.18,7.27,52.72,21.82,14.54,14.36,21.82,32,21.82,52.54v74.54c0,20.73-7.27,38.36-21.82,52.9-14.36,14.36-32,21.63-52.72,21.63s-38.36-7.27-52.9-21.63c-14.36-14.54-21.63-32.18-21.63-52.9v-241.98Zm48,141.08c-7.09,7.09-10.73,16-10.73,26.36v74.54c0,10.54,3.64,19.45,10.73,26.54,7.09,7.09,16,10.73,26.54,10.73s19.27-3.64,26.36-10.73c7.27-7.27,10.91-16.18,10.91-26.54v-74.54c0-10.36-3.64-19.27-10.91-26.36-7.09-7.09-16-10.73-26.36-10.73s-19.27,3.64-26.54,10.73Z"/>
      <path class="cls-1" d="m487.11,244.8c-8.44,0-12.6,4.16-12.6,12.48v.06c0,8.32,4.16,12.48,12.6,12.48s12.48-4.16,12.48-12.48v-.06c0-8.32-4.16-12.48-12.48-12.48Z"/>
      <path class="cls-10" d="m503.98,402.32c.15,1.16.23,2.4.23,3.71v112.16c0,11.55-5.69,17.24-17.08,17.24s-17.24-5.69-17.24-17.24v-112.16c0-1.31.08-2.55.23-3.71-.15-.65-.23-1.31-.23-1.98,0-1.92.46-3.59.61-4.03,1.4-4.25,4.5-5.64,6.57-7.89,5.29-5.77,5.29-18.72,0-24.48-1.98-2.16-1.72-4.05-2.91-7.89-.61-1.98-.61-4.03-.61-4.03,0-.26.01-2.35.71-4.33,1.46-4.18,4.64-4.06,6.47-7.61,1.46-2.82,1.44-6.74,0-9.56-1.91-3.73-5.39-3.71-6.78-7.98-.61-1.86-.62-3.94-.62-4.05,0-5.25,3-9.81,7.4-12.03.63-.32,1.28-.6,1.96-.81v-12.79c0-.81.65-1.47,1.47-1.47h5.78c.81,0,1.47.66,1.47,1.47v12.94c.52.19,1.02.41,1.51.66,4.4,2.22,7.4,6.78,7.4,12.03,0,.12,0,2.19-.61,4.05-1.4,4.27-4.91,4.29-6.79,7.98-1.41,2.77-1.38,6.6,0,9.34,1.94,3.85,5.67,3.89,7.04,8.21.58,1.86.58,3.95.58,3.95,0,0,0,2-.58,3.95-1.14,3.78-1.27,5.88-3.37,8.2-5.19,5.72-5.19,18.3,0,24.02,2.26,2.49,5.58,3.76,7.03,8.2.17.52.59,2.1.59,3.95,0,.67-.08,1.33-.23,1.98Z"/>
      <g>
        <g>
          <path class="cls-14" d="m349.06,520.49c-3.27-3.19-10.97-11.3-16.35-24.24-3.77-9.06-5.66-18.9-5.66-29.46v-137.13h-42.02c-5.92-.09-15.89.54-27.03,5.22-3.28,1.38-12.58,5.58-21.69,14.7-13.23,13.23-19.93,29.47-19.93,48.56v68.65c0,19.09,6.7,35.33,19.93,48.72,9.25,9.36,18.79,13.49,21.69,14.7,9.41,3.91,17,4.41,27.08,4.98,7.69.44,6.71,1.75,25.25-5.11,1.87-.69,5.78-2.24,11.23-2.55,8.27-.48,14.52,2.21,17.41,3.33,6.8,2.64,17.34,5.29,33.33,4.81-5.57-2.26-14.54-6.7-23.23-15.18Zm-43.71-53.7v34.32c-11.44,0-8.88,0-20.32,0-3.32.06-9.1-.31-15.32-3.34-1.56-.76-5.32-2.74-9.13-6.54-6.53-6.53-9.87-14.73-9.87-24.44v-68.65c0-9.54,3.34-17.75,9.87-24.28,2.16-2.16,5.67-5.06,10.66-7.18,5.57-2.37,10.54-2.72,13.48-2.7,11.54,0,9.08-.02,20.62-.02l.02,34.18v68.65Z"/>
          <path class="cls-7" d="m436.26,349.75c-9.75-9.63-19.55-13.96-22.03-15-10.89-4.54-20.64-5.17-26.53-5.09h-4.32c.14-.93.24-1.84.49-2.73,1.6-5.42,9.46-10.22,15.01-9.16,2.26.43,3.62-.29,6.41-1.02,1.44-.38,2.7-1.14,2.7-1.14,0,0,1.3-.8,2.24-1.88,2.18-2.49.78-4.85,2.44-7.52,1.19-1.92,3.57-3.39,5.84-3.57,3.03-.23,4.38,1.95,7.58,1.2,1.39-.33,2.69-1.11,2.76-1.16,3.29-2.01,4.99-5.62,4.7-9.22-.11-1.5-.57-2.99-1.41-4.37-.84-1.37-1.95-2.46-3.24-3.24-3.07-1.9-7.06-2.04-10.34-.04-.07.04-1.37.84-2.3,1.93-2.14,2.5-.8,4.67-2.4,7.29-1.21,1.97-3.65,3.48-5.98,3.64-2.91.21-4.05-1.82-7.22-1.14-1.5.32-2.81,1.11-2.97,1.21,0,0-1.29.78-2.29,1.92-1.95,2.21-3.23,2.77-3.82,4.82-1.58,5.51-9.68,10.45-15.3,9.34-2.2-.43-4.24-1.83-7.43-1.09-.09.02-.25.06-.46.13-.03,0-.06.01-.09.02l.02-71.03.02-69.5v-.02c.24-1.59.83-3.76,2.56-5.29,2.93-2.61,7.37-1.84,9.12-1.72,4.72.32,11.92-2.6,22.55-17.54l-42.63.62v-5.2c3.47-.13,11.82-2.32,6.69-6.3-6.31-4.5-4.51-9.38,3.08-13.88,9.12-6.94-2.58-12.34-2.58-12.34l8.61-8.61v-10.93h-49.09v10.93l8.61,8.61s-11.69,5.4-2.57,12.34c7.58,4.5,9.39,9.38,3.08,13.88-5.14,3.98,3.21,6.17,6.69,6.3v5.19l-8.34-.12-34.23-.49c10.63,14.94,17.83,17.86,22.55,17.54,1.75-.12,6.19-.89,9.12,1.72,1.73,1.53,2.32,3.7,2.56,5.29v67.77c-.05.93-.07,1.88-.07,2.83v222.86c.37,11.9,3.05,21.16,5.23,27.04,1.92,5.16,4.46,11.84,10.26,19.03,5.87,7.27,12,11.26,15.21,13.3,5.46,3.49,12.68,8.09,22.95,9.28,12.11,1.39,21.49-2.8,27.84-5.58,7.56-3.32,14.48-8.11,20.72-14.35,13.39-13.39,20.09-29.63,20.09-48.72v-68.65c0-18.92-6.7-35.16-20.09-48.39Zm-14.23,117.04c0,9.54-3.35,17.75-10.05,24.44-4.08,4.08-8.14,6.09-9.52,6.74-5.99,2.81-11.5,3.19-14.76,3.14-11.43.06-7.87.11-19.3.16-.01-11.49-.01-22.99-.02-34.48v-68.65c.02-11.4.03-22.81.05-34.21,11.42.01,7.85.03,19.27.05,3.27-.04,8.78.34,14.76,3.15,1.22.57,5.31,2.63,9.52,6.73,6.7,6.53,10.05,14.74,10.05,24.28v68.65Z"/>
        </g>
        <g>
          <g>
            <path class="cls-9" d="m362.9,88.38v3.76h-11.79c-.35-.53-.56-1.16-.56-1.85v-1.04c.06-.3.06-.6,0-.9v-2.91c0-2.27,1.83-4.11,4.1-4.13h1.19c3.9,0,7.06,3.16,7.06,7.07Z"/>
            <path class="cls-3" d="m353.93,75.57v5.22c-2.27.02-4.1,1.85-4.1,4.12v.3h-2.37l-2.03-1.52c-1.15-.86-2.52-1.2-3.84-1.07-.01-.04-.02-.08-.02-.12v-6.93c0-1.5,1.22-2.71,2.71-2.71h6.94c1.49,0,2.71,1.21,2.71,2.71Z"/>
            <path class="cls-13" d="m349.27,88.36v.9c-.07.37-.21.74-.45,1.06l-1.37,1.82h-12.34c-.9-1.21-.94-2.9.01-4.16l2-2.66c.97-1.29,2.41-2.02,3.9-2.16,1.33-.13,2.7.2,3.85,1.07l2.02,1.52,1.43,1.07c.52.39.84.95.95,1.54Z"/>
          </g>
          <path class="cls-4" d="m352.35,26.08c-.35.83-.84,1.63-1.47,2.34-.63.71-1.39,1.37-2.34,1.84-.95.44-2.09.82-3.56.4-.36-.1-.75-.3-1.09-.55-.34-.25-.61-.54-.83-.84-.44-.59-.72-1.21-.91-1.82-.37-1.22-.46-2.46-.19-3.77.26-1.28.95-2.77,2.42-3.83,1.47-1.08,3.35-1.28,4.77-1.08,1.46.19,2.7.67,3.87,1.35,1.17.65,2.38,1.88,3.11,3.07.76,1.21,1.24,2.48,1.55,3.72.59,2.51.54,4.98-.2,7.59-.39,1.3-.98,2.68-2.06,4.02-.54.66-1.25,1.35-2.05,1.89-.8.57-1.6.93-2.38,1.23-1.55.58-2.97.79-4.3.87-1.33.08-2.56,0-3.75-.18-4.72-.73-8.92-2.55-12.67-5.8-1.85-1.64-3.59-3.69-4.8-6.27-.61-1.28-1.06-2.68-1.36-4.14-.29-1.47-.38-3-.27-4.49.2-2.99,1.21-5.7,2.48-7.97,1.28-2.28,2.84-4.18,4.54-5.83,1.71-1.64,3.57-3.01,5.57-4.18,2-1.16,4.19-2.16,6.61-2.81,4.8-1.27,9.86-1.11,14.46.27,4.58,1.44,8.81,4.02,12.03,7.7,1.64,1.86,3,4,3.97,6.21,1,2.21,1.58,4.51,1.91,6.75.64,4.51.25,8.72-.82,12.86-.13.52-.3,1.09-.49,1.64-.17.55-.4,1.11-.63,1.67-.49,1.11-1.08,2.25-1.78,3.25-1.4,2.04-2.9,3.45-4.17,4.63-1.29,1.19-2.46,2.3-3.62,3.46-1.16,1.14-2.3,2.4-3.43,3.66-2.28,2.52-4.45,5.18-6.6,7.91-2.12,2.75-4.22,5.59-6.31,8.51,1.1-7.11,3.44-14.03,6.66-20.61.81-1.64,1.68-3.24,2.65-4.88.96-1.62,2.06-3.18,3.05-4.63,1-1.47,1.84-2.69,2.21-3.68.39-.97.52-1.97.67-3.26.12-1.34.14-2.78.02-4.14-.1-1.36-.3-2.67-.64-3.86-.7-2.39-1.75-4.25-3.24-5.61-1.54-1.46-3.54-2.59-5.66-3.1-2.11-.57-4.29-.57-6.24-.01-1.91.45-4.21,1.76-5.88,3.26-.86.74-1.57,1.54-2.05,2.28-.49.75-.73,1.39-.86,1.89-.12.49-.12.95.06,1.61.21.62.6,1.42,1.27,2.2,1.32,1.56,3.59,3.05,5.71,3.75,1.02.35,2.08.48,2.33.53.05.02.07.06,0,.14-.05.09-.1.19-.05.21.07.03.35-.15.56-.49.47-.67.78-1.78.85-2.73.04-.48.01-.91-.04-1.25-.08-.35-.04-.49-.3-.85-.24-.33-.61-.64-.86-.82-.28-.18-.27-.25-.3-.41-.04-.15-.37-.08-.63.3-.26.36-.47.91-.52,1.41-.03.25-.03.48-.02.63.03.17-.06.19,0,.32.16.28.87.47,1.58.42,1.49-.03,3.08-.85,4.47-1.97Z"/>
        </g>
      </g>
      <g>
        <path class="cls-6" d="m254.71,466.79c0,8.57,2.93,15.84,8.7,21.61,3,3,6.03,4.79,8.05,5.77,3.95,1.92,8.42,2.94,12.94,2.94.19,0,.38,0,.63,0h16.32v-73.43c-1.97-2.01-5.26-4.79-9.91-5.99-8.35-2.16-12.57,2.98-20.67.12-4.36-1.54-7.67-4.62-9.98-6.77-2.83-2.64-4.79-5.24-6.08-7.18v62.94Z"/>
        <path class="cls-5" d="m372.38,466.78l.02,30.46c2.89-.02,4.3-.04,5.76-.06,1.92-.03,3.94-.05,9.6-.08h.46c4.35,0,8.68-.95,12.53-2.76,3.03-1.43,5.93-3.49,8.4-5.95,5.89-5.88,8.88-13.15,8.88-21.61v-61.06c-4.61-.33-11.08,0-16.39,4-2.42,1.82-2.09,2.74-5.7,6.2-3.89,3.73-8.05,7.71-13.84,8.3-1.76.18-5.29.21-9.71-2.2v44.76Z"/>
        <path class="cls-11" d="m268.99,391.35c-1.22,2.12-3.44,1.86-6.13,3.51-2,1.22-4.38,3.57-5.97,8.51-.29-1.82-.59-5.21.57-9.18,1.28-4.36,3.66-7.22,4.96-8.58,1.75-1.51,4.04-1.84,5.58-.89,2.16,1.33,2.08,4.74.99,6.63Z"/>
        <path class="cls-2" d="m277.76,400c-1.56-.13-2.24,1.13-4.1,1.94-1.38.61-3.49,1-6.68.02.85.82,2.53,2.22,5.05,3.07,2.77.93,5.15.72,6.34.53,1.44-.37,2.45-1.46,2.52-2.61.09-1.63-1.73-2.83-3.13-2.95Z"/>
      </g>
    </g>
  </g>
</svg>